/* XPM */
static char *_4a15858a3d04359ff75da0bdfb52ab1wCHiEFCxL9gPsw5F[] = {
/* columns rows colors chars-per-pixel */
"48 48 127 2 ",
"   c None",
".  c #482F24",
"X  c #493125",
"o  c #4C352A",
"O  c #4E392E",
"+  c #593B27",
"@  c #523B2E",
"#  c #5D3D2D",
"$  c #4B3E39",
"%  c #6F3B27",
"&  c #613F2F",
"*  c #613F30",
"=  c #7F570F",
"-  c #68461F",
";  c #744E18",
":  c #785116",
">  c #4D403A",
",  c #6E4A20",
"<  c #62412E",
"1  c #7D5327",
"2  c #77502B",
"3  c #624030",
"4  c #263742",
"5  c #273844",
"6  c #293A44",
"7  c #2E3F4B",
"8  c #374B56",
"9  c #485762",
"0  c #445965",
"q  c #495861",
"w  c #485E6B",
"e  c #4B616C",
"r  c #58666F",
"t  c #506570",
"y  c #5D6E78",
"u  c #64737C",
"i  c #9C2101",
"p  c #82361E",
"a  c #9B3812",
"s  c #A42303",
"d  c #A92200",
"f  c #A72E0C",
"g  c #B22602",
"h  c #BC2601",
"j  c #B02905",
"k  c #BD2902",
"l  c #BE2E09",
"z  c #A93007",
"x  c #BB3C04",
"c  c #B2340B",
"v  c #B4380A",
"b  c #AB3A11",
"n  c #C02700",
"m  c #C32A03",
"M  c #C92F07",
"N  c #C2320D",
"B  c #CD330A",
"V  c #D3360E",
"C  c #CF3A13",
"Z  c #D63911",
"A  c #DA3C14",
"S  c #81590D",
"D  c #8C5F16",
"F  c #8A5D1F",
"G  c #975017",
"H  c #975D1D",
"J  c #B24409",
"K  c #B35404",
"L  c #A44B15",
"P  c #A15F13",
"I  c #97680C",
"U  c #9A6A08",
"Y  c #946415",
"T  c #9E6514",
"R  c #9C6B14",
"E  c #936419",
"W  c #AC6A06",
"Q  c #A97407",
"!  c #A6720A",
"~  c #A16411",
"^  c #8D4820",
"/  c #914F24",
"(  c #825821",
")  c #81562D",
"_  c #865A2D",
"`  c #926321",
"'  c #DF4018",
"]  c #E3441B",
"[  c #737E86",
"{  c #758087",
"}  c #778289",
"|  c #788389",
" . c #838D95",
".. c #859096",
"X. c #86939C",
"o. c #8D9AA2",
"O. c #9DA7AE",
"+. c #A3ADB3",
"@. c #A7B0B7",
"#. c #A8B1B7",
"$. c #ABB4BA",
"%. c #B0B7BD",
"&. c #B1B9BE",
"*. c #B5BCC2",
"=. c #B8BFC4",
"-. c #BBC2C6",
";. c #BEC4C9",
":. c #C1C7CA",
">. c #C4CACD",
",. c #CACED0",
"<. c #CED3D4",
"1. c #D1D5D6",
"2. c #D4D7D8",
"3. c #D6DADA",
"4. c #DBDEDE",
"5. c #DADDDD",
"6. c #DCDEDE",
"7. c #DCDFDE",
"8. c #DCDEDF",
"9. c #DCDFDF",
"0. c #DDDFDF",
"q. c #D8DBDB",
"w. c #DEE0DF",
"e. c #DEE0E0",
"r. c #DFE1E0",
"t. c #E1E3E3",
"y. c #E7E8E7",
/* pixels */
"                                                                                                ",
"                                                                                                ",
"                                                                                                ",
"                                                                                                ",
"              | { { { { { { { { { { { { { { { { { { { { { { { { [ | [ [ | [ [ [ |               ",
"            | ..+.@.@.@.@.@.@.@.@.@.@.@.@.@.@.@.@.@.@.@.@.@.@.@.@.@.#.@.@.@.@.+.X.|             ",
"            | +.@.@.@.@.@.@.@.@.@.@.@.@.@.@.@.@.@.@.@.@.@.@.@.@.@.@.@.@.@.@.@.@.+.[             ",
"            { @.@.@.@.@.@.@.@.@.@.@.@.@.@.@.@.@.@.@.@.@.@.@.@.@.@.@.@.@.@.@.@.@.@.[             ",
"            { @.@.@.@.@.@.@.@.@.@.@.@.@.@.@.@.*.:.@.@.@.@.@.@.@.@.@.@.@.@.@.@.@.#.[             ",
"            { @.@.@.@.@.@.@.@.@.@.@.@.@.@.@.$.w.q.%.@.@.@.@.@.@.@.@.@.@.@.@.@.@.#.|             ",
"            { @.@.@.@.@.@.@.@.@.@.@.@.@.@.@.<.-.*.,.@.@.@.@.@.@.@.@.@.@.@.@.@.@.@.[             ",
"            { @.@.@.#.#.:.q.,.%.@.@.@.@.@.@.q.@.+.,.@.@.@.@.@.@.@.*.>.,.=.@.@.@.#.{             ",
"            { @.@.@.@.@.@.=.3.3.;.&.%.@.#.%.e.<.;.,.@.@.*.*.*.*.:.1.,.*.@.@.@.@.#.{             ",
"            { @.@.@.@.;.3.8.8.1.>.;.*.#.;.3.;.%.%.1.2.$.@.$.*.;.:.,.1.1.2.;.@.@.@.[             ",
"            { @.@.@.:.q.#.;.q.;.@.@.@.*.<.#.:.-.*.<.;.2.@.@.@.@.@.>.1.=.#.8.=.#.#.{             ",
"            { @.@.@.>.3.$.#.,.y.@.@.@.1.$.@.%.w.;.*.@.1.;.@.@.@.#.t.:.$.$.r.;.@.#.{             ",
"            { @.@.@.#.,.t.r.3.=.@.@.*.e.;.>.<.;.w.-.@.*.q.$.@.@.@.=.q.r.8.>.@.@.@.{             ",
"            { @.@.@.#.@.@.#.+.@.@.@.,.1.<.>.;.@.$.-.,.1.q.,.@.@.@.@.@.@.@.@.@.@.@.[             ",
"            { @.@.@.@.@.@.@.@.@.@.@.@.@.@.@.@.@.@.@.@.@.@.@.@.@.@.@.@.@.@.@.@.@.#.{             ",
"            { @.@.@.@.@.@.@.@.@.@.@.@.@.@.@.@.@.@.@.@.@.@.@.@.@.@.@.@.@.@.@.@.@.#.{             ",
"            [ +.@.@.@.@.@.@.@.@.@.@.@.@.@.@.@.@.@.@.@.@.@.@.O.X.@.@.@.@.@.@.#.+.+.[             ",
"            r  .+.@.@.@.@.@.@.@.@.@.@.@.@.@.@.@.@.@.@.@.@.@.O.u o.@.@.@.@.#.#.+. .r             ",
"            4 [ { { [ { { { { { { { { { { { { { { { { { { { { { e u { { { { { { u 5             ",
"            4 w w w w w w w w 8 e w w w w w w w w w w w w e e y y w w w w w w w w 4             ",
"            5 0 w w w w w w 8 4 w w w 9 $ o X X . X O > q e w w t w w w w w w w 0 5             ",
"            5 7 0 w w w w 8 4 4 w w w O + - ; : = ; - < @ e w w w w w w w w w 0 8 5             ",
"              5 5 4 4 4 4 4 4 4 4 4 4 + 2 F F I U Y F 1 # 4 4 4 4 4 4 4 4 4 4 5 4               ",
"                                      3 _ F R ! Q R ` _ 3                                       ",
"                                      * _ ` R ! Q R E _ #                                       ",
"                                      & _ ` R ! Q R ` _ 3                                       ",
"                                      n c L ~ ! Q R ` _ %                                       ",
"                                      n M m m x K ~ H b h h M m n                               ",
"                                      k M V A Z B k m m n N ] V m n                             ",
"                                      h k M Z ] ' A B m n g m m n n                             ",
"                                      & ^ z k m V V V M n d n n n                               ",
"                                      p k m Z C l k k m n s n                                   ",
"                                      n m B A V m J G a j                                       ",
"                            n m h m i n B B m x W R E _ *                                       ",
"                          m A ' Z B s m m v H ! Q R E _ *                                       ",
"                          B ] ' A B s f ^ ` R ! Q R ` _ *                                       ",
"                        n m M m n m g # _ ` R ! Q R ` _ *                                       ",
"                                      & _ ` R ! Q R E _ &                                       ",
"                                      < ) ` R ! Q R ` ) 3                                       ",
"                                        3 1 E ! Q E 1 <                                         ",
"                                          < < < * < <                                           ",
"                                                                                                ",
"                                                                                                ",
"                                                                                                "
};
